REM MD5 a51a683c11cdd0249fa481c9ffbb4a3c
FILE "Ubik (Europe) (En,Fr,De).bin" BINARY
  TRACK 01 MODE2/2352
    INDEX 01 00:00:00
  TRACK 02 AUDIO
    INDEX 00 54:16:67
    INDEX 01 54:18:67
  TRACK 03 AUDIO
    INDEX 00 55:58:07
    INDEX 01 56:00:07
  TRACK 04 AUDIO
    INDEX 00 57:51:13
    INDEX 01 57:53:13
  TRACK 05 AUDIO
    INDEX 00 59:40:69
    INDEX 01 59:42:69
  TRACK 06 AUDIO
    INDEX 00 61:37:14
    INDEX 01 61:39:14
REM LEADOUT 64:40:37
